<?xml version="1.0" encoding="utf-8"?>
<!-- Generator: Adobe Illustrator 23.0.4, SVG Export Plug-In . SVG Version: 6.00 Build 0)  -->
<svg version="1.1" id="Layer_1" xmlns="http://www.w3.org/2000/svg" xmlns:xlink="http://www.w3.org/1999/xlink" x="0px" y="0px"
	 viewBox="0 0 300 300" style="enable-background:new 0 0 300 300;" xml:space="preserve">
<style type="text/css">
	.st0{fill:#FFFFFF;}
	.st1{fill:#FF6600;}
</style>
<g>
	<g>
		<path class="st0" d="M105.4,86.7c19.3,0,34.9,15.6,34.9,35.1s-15.6,35.1-34.9,35.1s-34.9-15.6-34.9-35.1S86.1,86.7,105.4,86.7z
			 M105.4,104.8c-9.4,0-16.8,7.6-16.8,17s7.4,17,16.8,17c9.4,0,16.8-7.6,16.8-17S114.8,104.8,105.4,104.8z M178.6,83.2l14.9,8.3
			L120.3,220l-13.5-7.6L178.6,83.2z M194.6,146.1c19.3,0,34.9,15.6,34.9,35.1s-15.6,35.3-34.9,35.3s-34.9-15.8-34.9-35.3
			C159.6,161.7,175.2,146.1,194.6,146.1z M194.6,164.1c-9.4,0-16.8,7.6-16.8,17c0,9.6,7.4,17.2,16.8,17.2c9.4,0,16.8-7.6,16.8-17.2
			C211.4,171.8,204,164.1,194.6,164.1z"/>
	</g>
</g>
<g>
	<circle class="st1" cx="150" cy="149.3" r="145"/>
	<g>
		<g>
			<path class="st0" d="M96.8,71.9c23,0,41.6,18.6,41.6,41.8s-18.6,41.8-41.6,41.8S55.2,137,55.2,113.8S73.8,71.9,96.8,71.9z
				 M96.8,93.5c-11.2,0-20.1,9.1-20.1,20.3s8.9,20.3,20.1,20.3c11.2,0,20.1-9.1,20.1-20.3S108.1,93.5,96.8,93.5z M184.1,67.7
				l17.7,9.9l-87.3,153.2l-16.1-9.1L184.1,67.7z M203.1,142.7c23,0,41.6,18.6,41.6,41.8s-18.6,42-41.6,42s-41.6-18.8-41.6-42
				C161.5,161.3,180.1,142.7,203.1,142.7z M203.1,164.3c-11.2,0-20.1,9.1-20.1,20.3c0,11.4,8.9,20.5,20.1,20.5
				c11.2,0,20.1-9.1,20.1-20.5C223.2,173.4,214.3,164.3,203.1,164.3z"/>
		</g>
	</g>
</g>
</svg>
